<svg width="17" height="17" viewBox="0 0 17 17" fill="none" xmlns="http://www.w3.org/2000/svg">
<g clip-path="url(#clip0_1793_3433)">
<path d="M7.4388 15.5827C3.72239 15.5827 0.709636 12.4114 0.709636 8.49935C0.709636 4.58733 3.72239 1.41602 7.4388 1.41602C11.1552 1.41602 14.168 4.58733 14.168 8.49935C14.168 12.4114 11.1552 15.5827 7.4388 15.5827Z" stroke="#444444" stroke-width="1.41667" stroke-linecap="round" stroke-linejoin="round"/>
<path d="M9.20898 6.23268C8.75816 5.86711 8.19565 5.66711 7.61523 5.66602C6.14828 5.66602 4.95898 6.93393 4.95898 8.49935C4.95898 10.0648 6.14828 11.3327 7.61523 11.3327C8.21307 11.3327 8.76486 11.1216 9.20898 10.766" stroke="#444444" stroke-width="1.41667" stroke-linecap="round" stroke-linejoin="round"/>
<path d="M7.08398 1.41602C10.1532 1.41602 16.2923 2.12435 16.2923 8.49935C16.2923 14.8743 10.1532 15.5827 7.08398 15.5827" stroke="#444444" stroke-width="1.41667"/>
</g>
<defs>
<clipPath id="clip0_1793_3433">
<rect width="17" height="17" fill="white"/>
</clipPath>
</defs>
</svg>
