<?xml version="1.0" standalone="no"?>
<!DOCTYPE svg PUBLIC "-//W3C//DTD SVG 20010904//EN"
 "http://www.w3.org/TR/2001/REC-SVG-20010904/DTD/svg10.dtd">
<svg version="1.0" xmlns="http://www.w3.org/2000/svg"
 width="457.000000pt" height="457.000000pt" viewBox="0 0 457.000000 457.000000"
 preserveAspectRatio="xMidYMid meet">

<g transform="translate(0.000000,457.000000) scale(0.100000,-0.100000)"
fill="#000000" stroke="none">
<path d="M2463 3451 c-339 -54 -607 -292 -710 -628 -23 -78 -26 -104 -26 -233
0 -129 3 -155 26 -233 49 -160 122 -281 233 -388 115 -109 218 -169 371 -215
115 -35 315 -40 433 -10 307 76 543 304 636 613 24 78 27 105 27 233 0 128 -3
155 -27 233 -112 372 -424 618 -801 632 -60 2 -133 0 -162 -4z m279 -166 c41
-8 114 -35 168 -62 126 -62 245 -177 308 -299 108 -211 108 -457 0 -668 -63
-122 -182 -237 -308 -300 -110 -54 -201 -76 -320 -76 -119 0 -210 22 -320 76
-79 39 -110 62 -181 133 -71 71 -94 102 -133 181 -54 110 -76 201 -76 320 0
119 22 210 76 320 89 180 265 321 461 369 96 24 226 26 325 6z"/>
<path d="M1502 1617 l-392 -392 58 -58 57 -57 395 395 395 395 -55 55 c-30 30
-57 55 -60 55 -3 0 -182 -177 -398 -393z"/>
</g>
</svg>
